<svg width="219" height="247" viewBox="0 0 219 247" fill="none" xmlns="http://www.w3.org/2000/svg">
<rect x="1.5" y="1.5" width="216" height="244" rx="13.5" fill="white" stroke="black" stroke-width="3"/>

<g id="corps">
    <path id="tete" d="M165.5 130.5C165.5 160.323 142.256 177.5 110.5 177.5C78.7436 177.5 54 160.323 54 130.5C54 100.677 78.7436 73 110.5 73C142.256 73 165.5 100.677 165.5 130.5Z" fill="white" stroke="black" stroke-width="4"/>
    <path id="corps" d="M83 173C72.6265 180.608 64 191.27 64 202.886C64 212.386 81.8573 215.386 111.193 215.386C140.528 215.386 156 212.386 156 202.886C156 191.27 148.007 180.608 138.247 173C116.992 179.056 104.916 179.438 83 173Z" fill="white" stroke="black" stroke-width="4"/>
</g>

<g id="yeux">
    <g id="Y1" style="display: none;">
        <circle cx="90" cy="124" r="5" fill="black"/>
        <circle cx="129" cy="124" r="5" fill="black"/>
    </g>
    <g id="Y2" style="display: none;">
        <ellipse cx="87" cy="118.5" rx="4" ry="6.5" fill="black"/>
        <ellipse cx="132" cy="118.5" rx="4" ry="6.5" fill="black"/>
    </g>
    <g id="Y3" style="display: none;">
        <path d="M79.0136 120L94 126.106" stroke="black" stroke-width="5" stroke-linecap="round"/>
        <path d="M77 129.106L94 126.106" stroke="black" stroke-width="5" stroke-linecap="round"/>
        <path d="M140.986 119L126 125.106" stroke="black" stroke-width="5" stroke-linecap="round"/>
        <path d="M143 128.106L126 125.106" stroke="black" stroke-width="5" stroke-linecap="round"/>
    </g>
    <g id="Y4" style="display: none;">
        <ellipse cx="85.6333" cy="124.5" rx="5.1" ry="5.5" fill="black"/>
        <line x1="2.5" y1="-2.5" x2="16.0143" y2="-2.5" transform="matrix(0.918211 -0.396091 0.347758 0.937584 76 126.333)" stroke="black" stroke-width="5" stroke-linecap="round"/>
        <ellipse cx="5.1" cy="5.5" rx="5.1" ry="5.5" transform="matrix(-1 0 0 1 137.467 119)" fill="black"/>
        <line x1="2.5" y1="-2.5" x2="16.0143" y2="-2.5" transform="matrix(-0.918211 -0.396091 -0.347758 0.937584 142 126.333)" stroke="black" stroke-width="5" stroke-linecap="round"/>
    </g>
    <g id="Y5" style="display: none;">
        <ellipse cx="89.5" cy="126.5" rx="7" ry="6.5" fill="black"/>
        <path d="M80 115L96.5 125.5" stroke="black" stroke-width="6" stroke-linecap="round"/>
        <ellipse cx="6.57576" cy="6.5" rx="6.57576" ry="6.5" transform="matrix(-1 0 0 1 136.652 120)" fill="black"/>
        <path d="M139 115L123.5 125.5" stroke="black" stroke-width="6" stroke-linecap="round"/>
    </g>
    <g id="Y6" style="display: none;">
        <path d="M99 115C99 120.523 94.9706 125 90 125C85.0294 125 81 120.523 81 115" stroke="black" stroke-width="3" stroke-linecap="round"/>
        <path d="M139 115C139 120.523 134.971 125 130 125C125.029 125 121 120.523 121 115" stroke="black" stroke-width="3" stroke-linecap="round"/>
    </g>
    <g id="Y7" >
        <ellipse cx="87" cy="123.5" rx="4" ry="6.5" fill="black"/>
        <path d="M87.5 118.5C91.0532 118.5 94.1966 119.196 96.3955 120.255C98.701 121.365 99.5 122.609 99.5 123.5C99.5 124.391 98.701 125.635 96.3955 126.745C94.1966 127.804 91.0532 128.5 87.5 128.5C83.9468 128.5 80.8034 127.804 78.6045 126.745C76.299 125.635 75.5 124.391 75.5 123.5C75.5 122.609 76.299 121.365 78.6045 120.255C80.8034 119.196 83.9468 118.5 87.5 118.5Z" stroke="black" stroke-width="3"/>
        <ellipse cx="130" cy="123.5" rx="4" ry="6.5" fill="black"/>
        <path d="M130.5 118.5C134.053 118.5 137.197 119.196 139.396 120.255C141.701 121.365 142.5 122.609 142.5 123.5C142.5 124.391 141.701 125.635 139.396 126.745C137.197 127.804 134.053 128.5 130.5 128.5C126.947 128.5 123.803 127.804 121.604 126.745C119.299 125.635 118.5 124.391 118.5 123.5C118.5 122.609 119.299 121.365 121.604 120.255C123.803 119.196 126.947 118.5 130.5 118.5Z" stroke="black" stroke-width="3"/>
    </g>
</g>

<g id="bouche">
    <g id="B1" style="display: none;">
        <path d="M132.188 143C133.118 143.083 133.119 143.083 133.624 143.363C134.066 144.18 134.059 144.835 133.901 145.727C132.11 151.944 127.631 156.646 122.153 159.74C121.038 160.309 119.909 160.831 118.76 161.327C118.579 161.408 118.397 161.489 118.211 161.572C115.321 162.78 112.274 163.038 109.182 162.996C108.861 162.997 108.54 162.997 108.21 162.998C105.445 162.982 102.907 162.584 100.289 161.69C100.09 161.622 99.89 161.554 99.6846 161.484C96.6968 160.423 94.024 158.915 91.6084 156.832C91.35 156.636 91.0914 156.44 90.8252 156.237C88.375 154.119 85.3305 150.098 85 146.751C85.0816 145.991 85.082 145.991 85.3594 145.495C86.175 145.016 86.7719 145.067 87.6924 145.198C88.562 146.12 89.0486 147.12 89.5684 148.271C91.8796 153.135 96.0283 156.075 100.893 157.992C101.709 158.26 102.521 158.484 103.356 158.683C103.592 158.742 103.827 158.801 104.069 158.861C110.234 160.156 116.774 158.835 122.068 155.408C125.983 152.654 128.583 149.442 130.246 144.934C130.921 143.117 130.921 143.117 132.188 143Z" fill="black"/>
        <path d="M132.188 143C133.118 143.083 133.119 143.083 133.624 143.363C134.066 144.18 134.059 144.835 133.901 145.727C132.11 151.944 127.631 156.646 122.153 159.74C121.038 160.309 119.909 160.831 118.76 161.327C118.579 161.408 118.397 161.489 118.211 161.572C115.321 162.78 112.274 163.038 109.182 162.996C108.861 162.997 108.54 162.997 108.21 162.998C105.445 162.982 102.907 162.584 100.289 161.69C100.09 161.622 99.89 161.554 99.6846 161.484C96.6968 160.423 94.024 158.915 91.6084 156.832C91.35 156.636 91.0914 156.44 90.8252 156.237C88.375 154.119 85.3305 150.098 85 146.751C85.0816 145.991 85.082 145.991 85.3594 145.495C86.175 145.016 86.7719 145.067 87.6924 145.198C88.562 146.12 89.0486 147.12 89.5684 148.271C91.8796 153.135 96.0283 156.075 100.893 157.992C101.709 158.26 102.521 158.484 103.356 158.683C103.592 158.742 103.827 158.801 104.069 158.861C110.234 160.156 116.774 158.835 122.068 155.408C125.983 152.654 128.583 149.442 130.246 144.934C130.921 143.117 130.921 143.117 132.188 143Z" stroke="black"/>
    </g>
    <g id="B2" >
        <path d="M89 158C92.0064 148.855 103.5 144 110.5 144C117.5 144 128.494 148.855 131.5 158" stroke="black" stroke-width="3" stroke-linecap="round"/>
    </g>
    <g id="B3" style="display: none;">
        <path d="M94 153L101.5 150L109 149L118 150.5L125.5 153" stroke="black" stroke-width="2" stroke-linecap="round"/>
        <path d="M109 154V143" stroke="black" stroke-width="2" stroke-linecap="round"/>
        <path d="M101 156V150.5V145" stroke="black" stroke-width="2" stroke-linecap="round"/>
        <path d="M118 156V145" stroke="black" stroke-width="2" stroke-linecap="round"/>
        <path d="M108.928 142.5C119.21 142.5 126.079 149.428 126.48 158.028C125.904 158.33 125.394 158.385 124.858 158.324C124.01 158.227 123.049 157.838 121.613 157.211C118.812 155.988 114.946 154.228 108.928 154.228C102.857 154.228 99.5343 156.12 97.1338 157.409C95.9192 158.062 95.1798 158.413 94.4619 158.486C93.969 158.537 93.3711 158.461 92.5166 157.998C92.6894 153.746 94.1924 149.989 96.7861 147.254C99.535 144.356 103.609 142.5 108.928 142.5Z" stroke="black" stroke-width="3"/>
    </g>
    <g id="B4" style="display: none;">
        <path d="M108.928 143.5C119.21 143.5 126.079 150.428 126.48 159.028C125.904 159.33 125.394 159.385 124.858 159.324C124.01 159.227 123.049 158.838 121.613 158.211C118.812 156.988 114.946 155.228 108.928 155.228C102.857 155.228 99.5343 157.12 97.1338 158.409C95.9192 159.062 95.1798 159.413 94.4619 159.486C93.969 159.537 93.3711 159.461 92.5166 158.998C92.6894 154.746 94.1924 150.989 96.7861 148.254C99.535 145.356 103.609 143.5 108.928 143.5Z" stroke="black" stroke-width="3"/>
    </g>
    <g id="B5" style="display: none;">
        <path d="M97 158.5C104.082 158.5 119.958 159.758 123 148" stroke="black" stroke-width="3" stroke-linecap="round"/>
    </g>
    <g id="B6" style="display: none;">
        <path d="M109.928 137C112.416 137.207 114.155 138.129 115.886 139.925C118.639 143.309 118.865 146.885 118.571 151.078C118.186 154.106 116.816 156.482 114.687 158.605C112.562 160.24 109.95 160.123 107.396 159.808C104.916 158.866 103.284 156.92 102.158 154.57C100.742 150.694 100.491 146.526 102.158 142.697C103.448 140.216 105.227 138.08 107.942 137.153C108.605 137.119 109.267 137.064 109.928 137Z" fill="black"/>
        <path d="M110.571 141.967C112.106 142.551 112.804 143.481 113.459 144.935C114.265 147.695 113.934 150.545 112.736 153.129C112.145 154.133 111.605 154.695 110.571 155.237C109.276 155.453 108.684 155.353 107.537 154.713C105.473 152.482 105.497 149.972 105.558 147.058C105.756 145.06 106.347 143.795 107.734 142.316C108.758 141.834 109.45 141.829 110.571 141.967Z" fill="white"/>
    </g>
    <g id="B7" style="display: none;">
        <path d="M89 142C95.1422 147.684 102.325 149.45 110 149.45C117.675 149.45 124.858 147.684 131 142" stroke="black" stroke-width="3" stroke-linecap="round"/>
        <path d="M120.5 148.45C120.5 158.45 118.5 164.95 111.5 164.95C104.5 164.95 101 157.95 101 148.45" stroke="black" stroke-width="3" stroke-linecap="round"/>
        <line x1="110.5" y1="150.45" x2="110.5" y2="158.45" stroke="black" stroke-width="3" stroke-linecap="round"/>
    </g>
    <g id="B8" style="display: none;">
        <path d="M99 153H120" stroke="black" stroke-width="4" stroke-linecap="round" />
    </g>
    <g id="B9" style="display: none;">
        <path d="M108.2 152.279C111.956 152.279 115 150.115 115 147.446C115 144.777 111.956 143 108.2 143C106.615 143 105.156 143.317 104 143.883" stroke="black" stroke-width="3" stroke-linecap="round"/>
        <path d="M108.2 152.279C111.956 152.279 115 154.546 115 157.342C115 160.138 111.956 162 108.2 162C106.615 162 105.156 161.668 104 161.075" stroke="black" stroke-width="3" stroke-linecap="round"/>
    </g>
    
    
</g>

<g id="bg-items">
    <g id="BGI1" style="display: none;">
        <path d="M154.774 72.302C156.676 72.302 158.244 73.898 158.244 75.9006C158.244 77.9034 156.676 79.5002 154.774 79.5002C152.872 79.5002 151.303 77.9034 151.303 75.9006C151.303 73.8981 152.872 72.302 154.774 72.302Z" fill="white" stroke="black"/>
        <path d="M162.248 62.0544C164.358 62.0544 166.186 64.055 166.186 66.6785C166.186 69.3018 164.357 71.3015 162.248 71.3015C160.138 71.3012 158.31 69.3017 158.31 66.6785C158.31 64.0552 160.138 62.0547 162.248 62.0544Z" fill="white" stroke="black"/>
        <path d="M180 11.5C197.513 11.5 211.5 22.6967 211.5 36.2773C211.5 49.8579 197.513 61.0547 180 61.0547C162.487 61.0547 148.5 49.8579 148.5 36.2773C148.5 22.6967 162.487 11.5 180 11.5Z" fill="white" stroke="black"/>
        <ellipse cx="170.914" cy="37.45" rx="1.58025" ry="2.3" fill="black"/>
        <ellipse cx="186.716" cy="37.45" rx="1.58025" ry="2.3" fill="black"/>
        <ellipse cx="178.815" cy="37.45" rx="1.58025" ry="2.3" fill="black"/>
    </g>
    <g id="BGI2" style="display: none;">
        <path d="M200.218 48.3869C200.218 41.9399 194.807 36.6705 187.889 35.9887C186.177 30.7193 180.835 27 174.67 27C169.534 27 164.808 29.6657 162.479 33.695C160.835 33.199 159.123 32.9514 157.411 32.9514C148.918 32.9514 142 39.2124 142 46.9C142 53.161 146.589 58.4304 152.822 60.2284L152.068 61.7781C151.657 62.5841 152.068 63.4518 152.959 63.8237C153.164 63.8857 153.438 63.9477 153.644 63.9477C154.329 63.9477 154.945 63.5757 155.219 63.0177L156.315 60.786C156.726 60.786 157.068 60.848 157.479 60.848H159.74C159.877 61.22 160.219 61.53 160.63 61.7161C160.836 61.7781 161.11 61.8401 161.315 61.8401C162 61.8401 162.617 61.468 162.89 60.91V60.848H166.452C166.246 61.034 166.041 61.22 165.904 61.468L163.027 67.3574C162.616 68.1635 163.027 69.0311 163.918 69.4031C164.123 69.4651 164.397 69.5271 164.603 69.5271C165.288 69.5271 165.904 69.1551 166.178 68.597L169.054 62.7081C169.397 62.0261 169.123 61.2825 168.506 60.8485H172.958L171.109 64.5679C170.698 65.3739 171.109 66.2415 172 66.6135C172.205 66.6755 172.479 66.7375 172.685 66.7375C173.37 66.7375 173.986 66.3655 174.26 65.8075L176.657 60.8481H179.739L177 66.4275C176.589 67.2335 177 68.1012 177.89 68.4731C178.096 68.5352 178.37 68.5971 178.575 68.5971C179.26 68.5971 179.877 68.2251 180.15 67.6671L183.438 60.8481H186.931L185.561 63.6378C185.15 64.4439 185.561 65.3115 186.452 65.6834C186.657 65.7455 186.931 65.8075 187.137 65.8075C187.822 65.8075 188.438 65.4354 188.712 64.8774L191.04 60.104C196.451 58.4304 200.218 53.781 200.218 48.3876L200.218 48.3869ZM186.657 56.508H157.412C151.521 56.508 146.796 52.1686 146.796 46.8993C146.795 41.6299 151.59 37.2905 157.412 37.2905C159.192 37.2905 160.973 37.7246 162.548 38.5306L165.151 39.8322L165.973 37.2285C167.069 33.8188 170.63 31.4011 174.603 31.4011C179.055 31.4011 182.891 34.4389 183.507 38.4062L183.781 40.3278L185.904 40.2658H186.178H186.315C191.246 40.2658 195.288 43.9236 195.288 48.3869C195.424 52.7887 191.588 56.384 186.657 56.508L186.657 56.508Z" fill="black"/>
        <path d="M160.15 62.9557C159.26 62.5836 158.301 62.9557 157.89 63.7617L155.835 67.9771C155.424 68.7831 155.835 69.6507 156.726 70.0227C156.932 70.0847 157.206 70.1467 157.411 70.1467C158.096 70.1467 158.713 69.7747 158.986 69.2167L161.041 65.0013C161.451 64.1953 161.04 63.2652 160.15 62.9557Z" fill="black"/>
        <path d="M171.451 67.7914C170.561 67.4814 169.602 67.7914 169.191 68.5974L168.164 70.7666C167.822 71.5727 168.164 72.4403 169.055 72.8123C169.26 72.8743 169.534 72.9363 169.74 72.9363C170.425 72.9363 171.041 72.5643 171.315 72.0062L172.343 69.8366C172.684 69.031 172.342 68.1013 171.451 67.7914Z" fill="black"/>
    </g>
    <g id="BGI3" style="display: none;">
        <path d="M158.717 19C158.703 19 158.691 19.005 158.677 19.005C151.385 19.0233 145.443 24.5 145.442 31.221V31.226C140.641 32.7811 137 36.6779 137 41.6283C137 47.9044 142.532 52.9998 149.347 52.9998H187.898C193.443 52.9998 197.953 48.8458 197.953 43.7391C197.953 39.1928 194.318 35.5643 189.624 34.7907C189.029 29.1358 183.999 24.6392 177.706 24.6392C175.213 24.6407 172.909 25.5275 170.888 26.823C168.916 22.2186 164.22 19.0001 158.717 19.0001L158.717 19ZM158.717 21.6683C163.557 21.6683 167.739 24.7393 168.823 29.0845L169.4 31.4038L171.245 29.736C172.971 28.1804 175.291 27.3089 177.706 27.3075C182.83 27.3075 186.952 31.1045 186.952 35.8235V35.8284V35.8548L186.946 37.1159L188.315 37.1889C192.102 37.3915 195.055 40.2 195.055 43.7401C195.055 47.4144 191.886 50.3325 187.897 50.3325H149.345C144.086 50.3325 139.896 46.473 139.896 41.6293C139.896 37.4594 143.022 34.0458 147.235 33.1655L148.44 32.9098L148.361 31.7792C148.348 31.5915 148.339 31.3993 148.338 31.2111C148.345 25.9246 152.975 21.6668 158.716 21.6689L158.717 21.6683Z" fill="black"/>
        <path d="M167.991 55.706C165.006 59.0229 162.011 62.3312 159.022 65.6446H169.423C167.622 67.4739 165.818 69.3016 164.019 71.1323C164.734 71.7301 165.448 72.3274 166.163 72.9252C169.429 69.6064 172.701 66.293 175.97 62.9762H165.196C166.871 61.1211 168.545 59.2646 170.221 57.4101C169.478 56.842 168.734 56.274 167.992 55.706H167.991Z" fill="black"/>
        <path d="M184.355 57.3369C182.067 60.0151 179.771 62.687 177.48 65.3628H184.502C183.372 66.5699 182.241 67.7764 181.113 68.985C181.844 69.5654 182.576 70.1454 183.308 70.7258C185.811 68.0481 188.318 65.3717 190.822 62.6949H183.455C184.513 61.4595 185.569 60.2227 186.629 58.9893C185.871 58.4387 185.113 57.888 184.355 57.3374V57.3369Z" fill="black"/>
        <path d="M151.038 57.3369C148.743 60.0096 146.455 62.6875 144.163 65.3628H151.185C150.055 66.5699 148.924 67.7764 147.796 68.985C148.527 69.5654 149.259 70.1454 149.991 70.7258C152.494 68.0481 155.001 65.3717 157.505 62.6949H150.138C151.196 61.4595 152.252 60.2227 153.312 58.9893C152.554 58.4387 151.796 57.888 151.038 57.3374V57.3369Z" fill="black"/>
    </g>
    <g id="BGI4" style="display: none;">
        <path d="M159.249 42.1148L160.738 38.5787L156.465 39.6621C149.458 41.4405 144.111 46.2642 142.499 52.2324C140.034 61.3893 146.943 70.5257 157.882 72.5909C159.371 72.8773 160.86 73 162.349 73C170.797 73 178.586 68.5648 181.516 61.6557L183.005 58.1195L178.732 59.203C176.12 59.8568 173.336 59.9595 170.675 59.4483C164.498 58.2833 160.005 54.2359 158.711 49.3717H177.927V45.5902H170.602L184.177 36.1264H164.376V39.9078H171.7L158.615 49.0443C158.2 47.307 158.224 45.4671 158.712 43.6277C158.834 43.1171 159.03 42.6059 159.249 42.1153L159.249 42.1148ZM169.675 63.1671C171.531 63.5145 173.41 63.6372 175.315 63.5556C171.726 67.8682 165.28 70.0961 158.883 68.9111C150.362 67.3171 144.991 60.2038 146.919 53.0701C147.847 49.5956 150.411 46.6317 153.927 44.7713C152.853 53.2338 159.518 61.2462 169.675 63.1668V63.1671Z" fill="black"/>
        <path d="M193.75 34.2454V30.4639H186.425L200 21H180.174V24.7815H187.499L173.924 34.2454H193.75Z" fill="black"/>
    </g>
    <g id="BGI5" style="display: none;">
        <path d="M170.863 34.1784C178.842 34.1784 185.222 40.0212 185.223 47.1266C185.223 54.2319 178.843 60.0739 170.864 60.0739C162.887 60.0738 156.507 54.2317 156.507 47.1266C156.507 40.0216 162.886 34.179 170.863 34.1784ZM170.864 34.1872C163.046 34.1873 156.621 39.9349 156.621 47.1266C156.622 54.3178 163.046 60.066 170.864 60.0661C178.683 60.0661 185.108 54.3183 185.109 47.1266C185.109 39.9347 178.683 34.1872 170.864 34.1872Z" fill="black" stroke="black"/>
        <path d="M170.93 63.9567C171.166 64.9601 171.322 66.3152 171.324 67.6764C171.324 69.0374 171.17 70.3927 170.933 71.3952V71.3961C170.911 71.4882 170.885 71.5762 170.864 71.6618C170.842 71.576 170.816 71.4876 170.794 71.3952C170.558 70.3924 170.403 69.037 170.405 67.6764C170.406 66.3157 170.562 64.9601 170.797 63.9567C170.819 63.864 170.842 63.7745 170.864 63.6881C170.886 63.7746 170.908 63.864 170.93 63.9567Z" fill="black" stroke="black"/>
        <path d="M148.16 46.7571H148.161C149.294 46.7562 150.427 46.835 151.396 46.966C151.558 46.9878 151.714 47.011 151.865 47.0354L152.301 47.1125C152.321 47.1164 152.341 47.1214 152.36 47.1252C152.341 47.1291 152.321 47.134 152.301 47.1379C152.162 47.1648 152.016 47.1905 151.865 47.2151L151.396 47.2854C150.425 47.4155 149.294 47.4952 148.161 47.4934H148.16C146.837 47.493 145.516 47.3838 144.457 47.2121L144.02 47.135L143.971 47.1252L144.02 47.1155C145.139 46.8999 146.647 46.7575 148.16 46.7571Z" fill="black" stroke="black"/>
        <path d="M151.954 29.9599V29.9608C152.911 30.5243 154.086 31.3864 155.153 32.3515H155.154C155.42 32.5912 155.679 32.8391 155.928 33.0878C156.678 33.836 157.329 34.5952 157.793 35.2411V35.2401C157.818 35.2754 157.842 35.3111 157.866 35.3456C157.8 35.3083 157.732 35.2704 157.664 35.2304H157.665C156.707 34.6677 155.533 33.8055 154.467 32.8388L153.98 32.3817C153.504 31.9203 153.061 31.4477 152.667 30.9901V30.9892C152.348 30.6194 152.058 30.2657 151.83 29.9472H151.829C151.806 29.9153 151.785 29.8826 151.763 29.8515C151.825 29.8868 151.889 29.9221 151.954 29.9599Z" fill="black" stroke="black"/>
        <path d="M157.792 59.0111C157.328 59.6563 156.676 60.4152 155.927 61.1634L155.926 61.1644C155.678 61.4129 155.419 61.6594 155.153 61.8997H155.152C154.085 62.8649 152.91 63.7269 151.953 64.2904C151.889 64.3279 151.826 64.3636 151.764 64.3988C151.786 64.3682 151.806 64.3362 151.829 64.305V64.304C152.057 63.9859 152.347 63.6329 152.667 63.263V63.262C153.192 62.6515 153.803 62.0147 154.467 61.4124C155.4 60.5666 156.416 59.801 157.297 59.2454L157.665 59.0208C157.732 58.9814 157.798 58.9443 157.863 58.9076C157.839 58.9413 157.816 58.9765 157.792 59.0111Z" fill="black" stroke="black"/>
        <path d="M170.931 22.8564C171.166 23.8598 171.323 25.2149 171.324 26.5762C171.325 27.9368 171.171 29.2915 170.934 30.2939V30.2959C170.912 30.3902 170.886 30.4805 170.863 30.5684C170.841 30.4803 170.816 30.3894 170.794 30.2949C170.558 29.2919 170.403 27.937 170.404 26.5762C170.405 25.5573 170.494 24.5388 170.638 23.668C170.685 23.3781 170.738 23.1055 170.797 22.8574V22.8564C170.819 22.7638 170.841 22.6743 170.863 22.5879C170.885 22.6744 170.909 22.7637 170.931 22.8564Z" fill="black" stroke="black"/>
        <path d="M193.569 46.7579H193.57C194.703 46.7571 195.835 46.8359 196.804 46.9669C197.127 47.0104 197.431 47.0597 197.709 47.1134H197.71C197.73 47.1173 197.749 47.1222 197.769 47.1261C197.749 47.13 197.73 47.1349 197.71 47.1388H197.709C197.57 47.1656 197.425 47.1914 197.274 47.2159L196.805 47.2853C195.836 47.4155 194.703 47.4956 193.57 47.4943H193.569C192.245 47.4938 190.925 47.3846 189.866 47.213L189.428 47.1359C189.412 47.1327 189.396 47.1292 189.38 47.1261L189.428 47.1163C190.548 46.9008 192.057 46.7584 193.569 46.7579Z" fill="black" stroke="black"/>
        <path d="M184.063 59.0227C184.9 59.5161 185.905 60.2381 186.858 61.0568L187.262 61.4133C187.395 61.5339 187.526 61.6558 187.655 61.7785L188.036 62.1496C188.693 62.8038 189.273 63.4673 189.718 64.0559L189.901 64.3029C189.925 64.337 189.948 64.3711 189.972 64.4045C189.906 64.3674 189.84 64.3305 189.773 64.2912H189.772C188.815 63.7291 187.642 62.8662 186.576 61.9006C185.775 61.1742 185.038 60.3929 184.456 59.6799V59.6789L184.183 59.3361L183.94 59.009C183.917 58.9774 183.895 58.9452 183.873 58.9143L184.063 59.0227Z" fill="black" stroke="black"/>
        <path d="M189.9 29.949C189.437 30.5955 188.786 31.3549 188.036 32.1023L188.035 32.1033C187.911 32.2274 187.784 32.3507 187.655 32.4734L187.262 32.8386C186.328 33.6835 185.311 34.449 184.431 35.0046L184.062 35.2293C183.997 35.2674 183.933 35.3029 183.87 35.3386C183.892 35.3069 183.915 35.2743 183.938 35.242C184.014 35.1359 184.095 35.0266 184.182 34.9148L184.455 34.572C184.964 33.9487 185.592 33.2719 186.278 32.6257L186.575 32.3513C187.641 31.3857 188.814 30.5219 189.77 29.9597L189.771 29.9607C189.839 29.9211 189.906 29.8829 189.972 29.8455C189.948 29.8792 189.925 29.9145 189.9 29.949Z" fill="black" stroke="black"/>
        <path d="M160.425 24.5117C160.481 24.5833 160.54 24.657 160.6 24.7344C161.246 25.5817 161.969 26.7804 162.549 28.0371H162.55C163.131 29.2934 163.564 30.5995 163.773 31.6074C163.789 31.6806 163.801 31.7525 163.814 31.8222C163.755 31.7479 163.694 31.6704 163.633 31.5898C162.987 30.7441 162.266 29.5456 161.686 28.2881C161.108 27.0307 160.675 25.724 160.465 24.7158C160.45 24.6463 160.438 24.5781 160.425 24.5117Z" fill="black" stroke="black"/>
        <path d="M178.093 62.6605V62.6615C178.739 63.5088 179.462 64.7076 180.042 65.9642H180.043C180.552 67.0644 180.947 68.2015 181.178 69.1439L181.267 69.5355C181.282 69.6087 181.295 69.6806 181.308 69.7504L181.126 69.5189L180.881 69.185C180.302 68.3712 179.686 67.3156 179.179 66.2152C178.672 65.115 178.279 63.9771 178.047 63.0346L177.958 62.6439C177.944 62.574 177.931 62.5055 177.918 62.4389C177.975 62.5102 178.034 62.5835 178.093 62.6605Z" fill="black" stroke="black"/>
        <path d="M153.771 53.6067C152.831 54.1946 151.502 54.8504 150.107 55.3773C148.711 55.9039 147.259 56.2971 146.134 56.4896C146.094 56.4963 146.054 56.5017 146.015 56.5081C146.029 56.4993 146.043 56.4906 146.057 56.4817C146.996 55.8936 148.326 55.237 149.721 54.7083C151.115 54.18 152.566 53.7856 153.691 53.594C153.736 53.5864 153.781 53.5797 153.824 53.5726C153.806 53.5838 153.789 53.5954 153.771 53.6067Z" fill="black" stroke="black"/>
        <path d="M195.672 37.7728C194.851 38.2867 193.731 38.8534 192.529 39.3392L192.009 39.5423C190.788 40.0028 189.524 40.3623 188.473 40.5735L188.037 40.6546C187.996 40.6615 187.955 40.6667 187.916 40.6732C187.93 40.6643 187.943 40.6547 187.958 40.6458C188.897 40.0586 190.227 39.4029 191.622 38.8753C193.016 38.3473 194.467 37.9516 195.592 37.7601C195.637 37.7525 195.681 37.7457 195.724 37.7386C195.707 37.7495 195.69 37.7617 195.672 37.7728Z" fill="black" stroke="black"/>
        <path d="M145.957 37.8688C145.996 37.875 146.036 37.8807 146.076 37.8873C147.202 38.0741 148.657 38.4614 150.056 38.9811C151.279 39.4355 152.454 39.9885 153.359 40.5104L153.73 40.732C153.748 40.7427 153.764 40.7537 153.781 40.7643C153.739 40.7576 153.695 40.7519 153.651 40.7447C152.526 40.5589 151.072 40.1713 149.675 39.65H149.674C148.275 39.129 146.944 38.4789 146 37.8961C145.986 37.8872 145.971 37.8776 145.957 37.8688Z" fill="black" stroke="black"/>
        <path d="M188.075 53.5082V53.5092C189.201 53.696 190.655 54.0827 192.054 54.602C193.454 55.1213 194.788 55.7699 195.73 56.353L195.784 56.3862C195.74 56.3793 195.695 56.374 195.65 56.3666C194.524 56.1813 193.071 55.7923 191.673 55.2709H191.672C190.274 54.7509 188.942 54.1003 187.997 53.518H187.998C187.984 53.5088 187.969 53.4989 187.955 53.4897C187.994 53.496 188.034 53.5016 188.075 53.5082Z" fill="black" stroke="black"/>
        <path d="M163.87 62.6819C163.667 63.6905 163.241 64.9985 162.668 66.258C162.095 67.5183 161.38 68.7189 160.738 69.5695C160.68 69.6472 160.621 69.7213 160.564 69.7932L160.603 69.5881C160.807 68.5797 161.232 67.2715 161.803 66.011C162.374 64.7502 163.088 63.5476 163.729 62.6985C163.791 62.617 163.851 62.5382 163.91 62.4631C163.897 62.5341 163.885 62.6073 163.87 62.6819Z" fill="black" stroke="black"/>
        <path d="M181.13 24.6656C180.952 25.5478 180.603 26.6591 180.134 27.7672L179.926 28.2418C179.355 29.5014 178.639 30.7024 177.999 31.5533C177.94 31.6313 177.881 31.7057 177.824 31.7779C177.836 31.7112 177.849 31.6427 177.863 31.5728C178.066 30.5644 178.491 29.2556 179.062 27.9947C179.633 26.7342 180.347 25.5313 180.988 24.6822L180.989 24.6832C181.05 24.6022 181.111 24.5245 181.17 24.4498C181.157 24.5199 181.144 24.592 181.13 24.6656Z" fill="black" stroke="black"/>
    </g>
    <g id="BGI6" style="display: none;">
        <path d="M147.687 46.9962C147.89 47.1996 148.133 47.3662 148.403 47.4849L158.608 51.9582C158.656 54.6783 159.478 57.008 161.165 58.6944C162.868 60.3972 165.226 61.2203 167.982 61.2537L172.516 71.5979C172.636 71.8688 172.802 72.1115 173.005 72.3142C173.334 72.6434 173.758 72.8717 174.229 72.9596C174.99 73.1026 175.772 72.8612 176.319 72.3135L185.654 62.9786C188.268 60.3649 188.454 56.2332 186.223 53.3972C187.656 52.2435 189.074 50.9736 190.459 49.5896C200.884 39.1646 199.858 21.5819 199.809 20.838L199.761 20.0975L199.02 20.049C198.276 19.9998 180.694 18.9746 170.269 29.3997C168.877 30.7915 167.601 32.2174 166.442 33.6591C163.612 31.5563 159.587 31.7786 157.021 34.3445L147.686 43.6808C147.139 44.2278 146.897 45.0103 147.04 45.7711C147.13 46.242 147.358 46.6664 147.686 46.9957L147.687 46.9962ZM179.266 30.5618C182.032 27.7958 186.533 27.7958 189.299 30.5618C192.064 33.3272 192.064 37.8286 189.299 40.5939C186.533 43.3599 182.032 43.3599 179.267 40.5939C176.5 37.8286 176.5 33.3284 179.266 30.5618Z" fill="black"/>
        <path d="M150.684 69.3168C150.944 69.5765 151.339 69.6382 151.665 69.4736C152.092 69.2571 153.181 68.758 154.124 68.4989C154.305 69.0453 154.57 69.5109 154.647 69.6402C154.799 69.8979 155.076 70.054 155.373 70.054C155.393 70.054 155.414 70.0534 155.434 70.0521C155.691 70.0337 161.785 69.5641 164.826 66.5232C165.524 65.8247 166.128 65.0481 166.618 64.2138C166.765 63.9625 166.774 63.653 166.639 63.3952C166.505 63.1361 166.246 62.9656 165.956 62.9426C163.337 62.7327 161.206 61.8223 159.621 60.2384C158.083 58.7003 157.18 56.6375 156.938 54.1051C156.911 53.8151 156.736 53.5593 156.476 53.4288C156.215 53.2983 155.906 53.3114 155.657 53.4629C154.868 53.9418 154.134 54.519 153.477 55.1761C150.437 58.2162 149.968 64.3097 149.95 64.5681C149.927 64.8869 150.086 65.1926 150.361 65.3559C150.489 65.4326 150.954 65.6983 151.501 65.8786C151.242 66.8199 150.743 67.9107 150.527 68.3377C150.362 68.6624 150.426 69.0592 150.684 69.317L150.684 69.3168Z" fill="black"/>
    </g>
    <g id="BGI7" style="display: none;">
        <path fill-rule="evenodd" clip-rule="evenodd" d="M173.063 23.0014C172.296 23.0014 171.589 23.4252 171.228 24.102L156.245 52.1534C155.901 52.7962 155.92 53.5738 156.297 54.2006C156.672 54.8254 157.35 55.209 158.081 55.209H168.41L159.83 84.3357C159.546 85.3002 159.994 86.329 160.894 86.7788C161.794 87.2305 162.887 86.9725 163.491 86.1688L191.584 48.767C192.057 48.1372 192.133 47.2946 191.781 46.5912C191.427 45.8872 190.708 45.4424 189.919 45.4424H183.676L191.84 25.8767C192.107 25.2358 192.037 24.5033 191.651 23.9255C191.265 23.3477 190.615 23 189.919 23L173.063 23.0014ZM161.549 51.0528L174.312 27.1572H186.798L178.634 46.7213C178.367 47.3628 178.437 48.0947 178.823 48.6724C179.21 49.2509 179.859 49.598 180.555 49.598H185.758L167.074 74.4739L173.187 53.7157C173.373 53.0878 173.25 52.4091 172.857 51.8846C172.464 51.3606 171.847 51.0519 171.191 51.0519L161.549 51.0528Z" fill="black"/>

    </g>
    <g id="BGI8" style="display: none;">
        <path d="M177.891 64.7022L179.221 65.1256C174.826 69.5426 169.006 72.0022 162.957 72C159.593 71.9839 156.271 71.2137 153.207 69.7396C148.952 67.6546 145.378 64.2706 142.939 60.0201C140.5 55.7689 139.308 50.8429 139.513 45.8697C139.868 46.1048 140.222 46.3406 140.621 46.6231C141.685 47.3765 142.793 48.13 143.989 48.836C148.745 51.8447 153.657 54.5641 158.702 56.9807C163.718 59.4675 168.868 61.6372 174.124 63.4778C175.41 63.9019 176.694 64.3255 177.891 64.7022ZM186.489 48.1769C186.704 43.1956 185.517 38.2588 183.077 33.9981C180.638 29.7373 177.058 26.3467 172.795 24.2596C169.736 22.7688 166.41 21.9978 163.045 22C156.996 21.9971 151.176 24.4568 146.781 28.8736C135.569 25.4838 129.055 25.7664 127.37 29.7213C125.685 33.6286 129.763 39.0436 139.512 45.8698C139.568 44.1329 139.821 42.4099 140.266 40.7381C133.042 35.418 131.402 32.3108 131.358 31.7458C131.89 31.2274 135.169 30.5214 143.59 32.8285C142.821 34.0185 142.153 35.2793 141.595 36.5949C141.028 37.9273 140.582 39.3145 140.266 40.7381C141.107 41.3499 141.994 42.0092 143.013 42.6684C143.411 42.9509 143.811 43.186 144.209 43.4685H144.21C149.466 46.9189 154.928 50.0013 160.563 52.6967C166.15 55.506 171.927 57.8664 177.846 59.7588C178.289 59.9471 178.688 60.0413 179.131 60.1822C180.284 60.5589 181.391 60.8882 182.366 61.1707C183.14 59.9756 183.822 58.7162 184.405 57.4043C184.973 56.0727 185.418 54.6847 185.735 53.2611C192.958 58.5812 194.598 61.6884 194.642 62.2534C194.11 62.7711 190.875 63.4778 182.366 61.1707C181.45 62.6024 180.396 63.9283 179.22 65.1255C183.271 66.4879 187.472 67.2792 191.717 67.4801C195.395 67.4801 197.7 66.3974 198.631 64.2787C200.314 60.3706 196.237 54.9563 186.488 48.1769L186.489 48.1769ZM194.283 35.6342C195.033 34.8369 195.455 33.7556 195.455 32.6285C195.455 31.5013 195.034 30.42 194.284 29.622C193.533 28.8247 192.515 28.3772 191.454 28.3772C190.393 28.3772 189.375 28.8247 188.624 29.622C187.874 30.4199 187.452 31.5013 187.452 32.6285C187.452 33.7556 187.874 34.8369 188.624 35.6342C189.375 36.4314 190.393 36.8797 191.454 36.8797C192.515 36.8797 193.532 36.4314 194.283 35.6342Z" fill="black"/>
    </g>
    <g id="BGI9" style="display: none;">
        <path d="M168.818 17.5078C169.17 17.4584 169.493 17.6139 169.647 17.8506C169.777 18.0486 169.78 18.2859 169.656 18.4854L169.596 18.5684C166.324 22.3675 164.549 27.0589 164.566 31.8906V31.8916C164.574 37.489 166.957 42.8529 171.193 46.8818L171.609 47.2676C176.104 51.3348 182.187 53.6158 188.523 53.6221V53.6211C193.823 53.6367 198.98 52.0443 203.17 49.0889C203.434 48.9041 203.808 48.8803 204.102 49.0371L204.103 49.0381C204.353 49.1719 204.477 49.3963 204.476 49.6123L204.468 49.7041C203.317 56.3207 199.591 62.3593 193.947 66.7266C188.302 71.0946 181.111 73.5 173.671 73.5C156.436 73.5 142.501 60.8189 142.5 45.335C142.501 38.6376 145.141 32.1525 149.962 27.0488C154.784 21.9439 161.469 18.5565 168.819 17.5088L168.818 17.5078ZM165.749 19.4932C159.57 21.0526 154.108 24.3927 150.197 29.0205C146.244 33.6977 144.097 39.4307 144.096 45.334C144.096 60.1663 157.411 72.1492 173.67 72.1494H174.17V72.1436C180.477 72.0463 186.595 70.124 191.621 66.6445C196.781 63.0722 200.508 58.0557 202.216 52.3623L202.562 51.2109L201.501 51.7783C197.575 53.8799 193.092 54.9844 188.524 54.9707H188.523C181.733 54.9638 175.233 52.5189 170.445 48.1855C165.659 43.8529 162.978 37.9914 162.971 31.8887V31.8877C162.956 27.844 164.131 23.8685 166.378 20.3662L166.92 20.2344L166.462 19.6279L166.033 19.0605L165.749 19.4932Z" fill="black" stroke="black" />
    </g>
</g>




</svg>
